# xmcd CD database file
#
# Track frame offsets:
#	150
#	23601
#	41998
#	64661
#	82064
#	104797
#	119970
#	140560
#	161317
#	181800
#
# Disc length: 2659 seconds
#
# Revision: 0
# Processed by: cddbd v1.5.2PL0 Copyright (c) Steve Scherf et al.
# Submitted via: CDex 1.51
#
DISCID=8f0a610a
DTITLE=Madredeus - Faluas Do Tejo
DYEAR=2005
DGENRE=New Age
TTITLE0=Lisboa - Rainha do Mar
TTITLE1=Fado das Dúvidas
TTITLE2=Adoro Lisboa
TTITLE3=Nevoas da Madrugada
TTITLE4=Faluas do Tejo
TTITLE5=No meu Jardim - Sementes a Terra
TTITLE6=Cais Distante
TTITLE7=Na Estrada de Santiago
TTITLE8=La de Fora
TTITLE9=Canto da Saudade
EXTD=YEAR: 2005
EXTT0=
EXTT1=
EXTT2=
EXTT3=
EXTT4=
EXTT5=
EXTT6=
EXTT7=
EXTT8=
EXTT9=
PLAYORDER=
